# xmcd CD database file
#
# Track frame offsets:
#	150
#	14220
#	27348
#	41863
#	50969
#	62383
#	89078
#	105268
#	119766
#	135455
#	154509
#	167228
#	172620
#	188395
#	207273
#
# Disc length: 2915 seconds
#
# Revision: 6
# Processed by: cddbd v1.5.2PL0 Copyright (c) Steve Scherf et al.
# Submitted via: CDex 1.70beta2
#
DISCID=ca0b610f
DTITLE=Fairport Convention - What We Did On Our Holidays
DYEAR=1969
DGENRE=Folk
TTITLE0=Fotheringay
TTITLE1=Mr. Lacey
TTITLE2=Book Song
TTITLE3="The Lord Is In This Place, How Dreadful Is This Place?"
TTITLE4=No Man's Land
TTITLE5=I'll Keep It With Mine
TTITLE6=Eastern Rain
TTITLE7=Nottamun Town
TTITLE8=Tale In Hard Time
TTITLE9=She Moves Through The Fair
TTITLE10=Meet On The Ledge
TTITLE11=End Of A Holiday
TTITLE12=Throwaway Street Puzzle
TTITLE13=You're Gonna Need My Help
TTITLE14=Some Sweet Day
EXTD=YEAR: 1969
EXTT0=
EXTT1=
EXTT2=
EXTT3=
EXTT4=
EXTT5=
EXTT6=
EXTT7=
EXTT8=
EXTT9=
EXTT10=
EXTT11=
EXTT12=
EXTT13=
EXTT14=
PLAYORDER=
